# xmcd CD database file
#
# Track frame offsets:
#	150
#	14227
#	27870
#	45162
#	59014
#	71382
#	89032
#	119447
#	131990
#	145967
#
# Disc length: 2189 seconds
#
# Revision: 0
# Processed by: cddbd v1.5.1PL0 Copyright (c) Steve Scherf et al.
# Submitted via: CDex 1.51
#
DISCID=97088b0a
DTITLE=Napalm Tobacco - Dai 3 Sekai he Nogare yo!
DYEAR=1999
DGENRE=New Age
TTITLE0=NEO ISM
TTITLE1=Do It Yourself
TTITLE2=Paradise
TTITLE3=NAHHHH
TTITLE4=Natsumatsuri
TTITLE5=Mindfuck
TTITLE6=Pain
TTITLE7=Save Our Beach1
TTITLE8=Save Our Beach2
TTITLE9=Save Our Beach3
EXTD=YEAR: 1999
EXTT0=
EXTT1=
EXTT2=
EXTT3=
EXTT4=
EXTT5=
EXTT6=
EXTT7=
EXTT8=
EXTT9=
PLAYORDER=
